<?xml version="1.0" encoding="utf-8"?>
<!-- Generator: Adobe Illustrator 22.0.0, SVG Export Plug-In . SVG Version: 6.00 Build 0)  -->
<svg version="1.1" id="OBJECTS" xmlns="http://www.w3.org/2000/svg" xmlns:xlink="http://www.w3.org/1999/xlink" x="0px" y="0px"
	 viewBox="0 0 398.8 271.6" style="enable-background:new 0 0 398.8 271.6;" xml:space="preserve">
<g>
	<path d="M2.2,198.1c10-13.4,22.1-23.5,39.4-25.8c7.8-1,15.4-0.5,22.8,2c2.4,0.8,3.6,0.3,5-1.7C82,155,94.3,137.1,107.7,120
		c13.6-17.5,27.8-34.7,45.8-48c10.9-8.1,22.9-13.5,36.1-16.4c0.9-0.2,1.7-0.4,3-0.7c-1.7-8.4-3.4-16.6-5.1-24.9
		c-1.1-5.3-2.3-10.5-3.3-15.8c-1.2-6,0.7-8.6,6.8-9.5c28.4-3.9,53.5,14,59.2,42.2c1.2,5.9,1.2,5.9,7.2,6c13.7,0.1,27.5-0.3,41.2,0.3
		c34.3,1.7,60.8,26.3,65.6,60.3c0.1,0.6,0.2,1.2,0.4,2.3c3.8,0,7.4-0.1,11.1,0c16.4,0.8,26,16.9,18.1,30.7
		c-4.4,7.7-11.5,10.5-20.1,10.5c-21.1,0-42.1,0-63.2,0c-8,0-8.1,0-10.9,7.6c-2.6,7-4.8,14.1-10,19.7c-11.2,12.1-24.9,16.6-41,14.1
		c-4.8-0.7-6.4-3.5-5.5-8.3c1.7-9.6,3.5-19.2,5.3-28.8c0.2-1.3,0.4-2.5,0.6-3.8c-0.5-0.2-0.9-0.5-1.2-0.5c-19,0.2-38-0.1-57,0.7
		c-18.3,0.8-35.1,7.1-50.5,16.8c-14.1,8.9-28.3,17.7-42.4,26.6c-0.5,0.3-1,0.7-1.2,0.8c1.3,5.9,2.9,11.5,3.6,17.1
		c2.1,19-6.3,33.8-19.4,46.5c-3.7,3.6-8.4,1.9-10.1-3.3c-4.4-13.9-8.8-27.9-12.9-41.9c-1.1-3.9-2.9-5.5-6.8-6.2
		c-13.9-2.4-27.7-5.1-41.5-8c-2.6-0.6-4.9-2.7-7.3-4.2C2.2,200.6,2.2,199.3,2.2,198.1z M255.8,186.8c12.6,0.9,25.7-7.4,29.9-18.7
		c2-5.4,4-10.8,6.1-16.2c2.5-6.6,3.2-7,10.1-7c24.3,0,48.5,0,72.8,0c6.1,0,9.8-3.3,9.8-8.5c0.1-5.1-3.7-8.4-9.8-8.6
		c-4.7-0.1-9.5,0-14.2,0c-5.3-0.1-7.4-2.2-7.7-7.5c-1.7-32.2-26-55.4-58.3-55.5c-13.7-0.1-27.5,0-41.2,0c-11.6,0-11.7,0-13.8-11.5
		c-2-10.6-5.7-20.2-14.2-27.4c-8-6.8-17.2-10.3-28.3-9.7c2.6,12.7,5.2,25.1,7.7,37c4.8,0,9.2,0,13.5,0c4.3,0,7.1,2.3,7.2,5.8
		c0.1,3.3-2.4,5.8-6.5,6.2c-3.4,0.3-6.9,0.3-10.4,0.3c-21.4,0.2-39.7,8.1-55.5,22.2c-14.8,13.2-27.6,28.3-39.3,44.2
		c-12.7,17.2-25.2,34.7-37.8,52c-3.7,5.2-5.3,5.6-11,3.2c-7.1-3.1-14.5-4.2-22.2-3c-8.6,1.3-16,4.9-22.5,11.5
		c1.2,0.4,1.9,0.6,2.6,0.8c12.1,2.3,24.1,4.8,36.3,6.9c4.6,0.8,7.3,2.8,8.5,7.5c1.9,7.1,4.2,14,6.3,21c1.7,5.6,3.5,11.2,5.5,17.6
		c0.7-1.1,0.9-1.5,1.2-1.9c9.3-13.1,10.6-26.9,3.8-41.4c-3.5-7.5-3.2-9,3.9-13.4c14.7-9.2,29.4-18.3,44-27.6
		c14.1-8.9,29.2-15.5,45.8-18.1c25.9-4.1,52-1.7,78-2.2c4.2-0.1,6.5,2.9,6,7.2c-0.1,1.4-0.4,2.8-0.7,4.2
		C259.6,166.4,257.7,176.5,255.8,186.8z"/>
	<path d="M322.8,104.8c4.5,0.1,8.3,4,8.2,8.4c-0.1,4.5-4,8.2-8.5,8.2c-4.5-0.1-8.3-4-8.2-8.4C314.4,108.5,318.2,104.8,322.8,104.8z"
		/>
</g>
</svg>
